<?xml version="1.0" encoding="utf-8"?>
<svg version="1.1" id="Слой_1" xmlns="http://www.w3.org/2000/svg" xmlns:xlink="http://www.w3.org/1999/xlink" x="0px" y="0px"
	 viewBox="0 0 25 25" style="enable-background:new 0 0 25 25;" xml:space="preserve">
<path id="path1468" d="M4,0c-0.1,0-0.3,0.1-0.4,0.2L0.2,3.6c-0.3,0.3-0.3,0.8,0,1.1L8,12.5l-7.8,7.8c-0.3,0.3-0.3,0.8,0,1.1l3.3,3.3
	c0.3,0.3,0.8,0.3,1.1,0l7.8-7.8l7.8,7.8c0.3,0.3,0.8,0.3,1.1,0l3.3-3.3c0.3-0.3,0.3-0.8,0-1.1L17,12.5l7.8-7.8
	c0.3-0.3,0.3-0.8,0-1.1l-3.3-3.3c-0.3-0.3-0.8-0.3-1.1,0L12.5,8L4.7,0.3C4.5,0,4.2,0,4,0z"/>
</svg>
